# Blender v2.93.4 OBJ File: 'limb.blend'
# www.blender.org
mtllib limb.mtl
o Cube
v -0.500000 1.000000 -0.500000
v 0.500000 1.000000 -0.500000
v -0.500000 -1.000000 -0.500000
v 0.500000 -1.000000 -0.500000
v -0.500000 1.000000 0.500000
v 0.500000 1.000000 0.500000
v -0.500000 -1.000000 0.500000
v 0.500000 -1.000000 0.500000
vt 0.333333 0.333333
vt 0.666667 0.333333
vt 0.666667 0.000000
vt 0.333333 0.000000
vt 0.333333 0.333333
vt 0.666667 0.333333
vt 0.666667 0.500000
vt 0.333333 0.500000
vt 0.666667 0.833333
vt 0.333333 0.833333
vt 0.666667 1.000000
vt 0.333333 1.000000
vt -0.000000 0.500000
vt -0.000000 0.833333
vt 1.000000 0.500000
vt 1.000000 0.833333
vn 0.0000 -0.0000 -1.0000
vn 0.0000 -1.0000 0.0000
vn 0.0000 0.0000 1.0000
vn 0.0000 1.0000 -0.0000
vn -1.0000 -0.0000 0.0000
vn 1.0000 0.0000 -0.0000
usemtl None
s off
f 1/1/1 2/2/1 4/3/1 3/4/1
f 3/5/2 4/6/2 8/7/2 7/8/2
f 7/8/3 8/7/3 6/9/3 5/10/3
f 5/10/4 6/9/4 2/11/4 1/12/4
f 3/13/5 7/8/5 5/10/5 1/14/5
f 8/7/6 4/15/6 2/16/6 6/9/6
