# Blender v2.93.4 OBJ File: ''
# www.blender.org
mtllib energorifle.mtl
o Cube
v 0.388966 -0.971392 0.388966
v 0.388966 -1.082426 0.500000
v 0.500000 -1.082426 0.388966
v 0.388966 -1.082426 -0.939297
v 0.388966 -0.971392 -0.388966
v 0.500000 -1.082426 -0.388966
v 0.500000 -1.860358 0.388966
v 0.388966 -1.860358 0.500000
v 0.177645 -2.710506 0.388966
v 0.500000 -1.860358 -0.388966
v 0.104869 -2.338398 -0.527480
v 0.125921 -2.059650 -0.767613
v -0.388966 -0.971392 0.388966
v -0.500000 -1.082426 0.388966
v -0.388966 -1.082426 0.500000
v -0.500000 -1.082426 -0.388966
v -0.388966 -0.971392 -0.388966
v -0.388966 -1.082426 -0.939297
v -0.500000 -1.860358 0.388966
v -0.177645 -2.710506 0.388966
v -0.388966 -1.860358 0.500000
v -0.125921 -2.059650 -0.767613
v -0.104869 -2.338398 -0.527480
v -0.500000 -1.860358 -0.388966
v 0.388966 -0.211301 -0.388966
v 0.388966 -0.211301 0.388966
v -0.388966 -0.211301 -0.388966
v -0.388966 -0.211301 0.388966
v 0.388966 -0.211301 0.663124
v -0.109464 -1.860358 -1.652625
v -0.388966 -0.211301 0.663124
v -0.388966 -1.082426 -1.932127
v 0.388966 -0.211301 -1.028073
v 0.109464 -1.860358 -1.652625
v -0.388966 -0.211301 -1.028073
v 0.388966 -1.082426 -1.932127
v 0.281240 0.007838 0.555397
v 0.388966 -0.099889 0.663124
v -0.281240 0.007838 0.555397
v -0.388966 -0.099889 0.663124
v 0.388966 -0.099889 -1.028073
v 0.281240 0.007838 -0.920347
v -0.281240 0.007838 -0.920347
v -0.388966 -0.099889 -1.028073
v 0.109464 -1.860358 -1.218800
v -0.109464 -1.860358 -1.218800
v 0.266269 -2.460679 -0.422137
v 0.388966 -1.860358 -0.939297
v -0.388966 -1.860358 -0.939297
v -0.266269 -2.460679 -0.422137
v 0.125921 -2.134072 -0.771187
v 0.125921 -2.109766 -1.118622
v -0.125921 -2.109766 -1.118622
v -0.125921 -2.134072 -0.771187
v 0.177645 -3.752443 0.388966
v 0.286965 -4.065765 0.286965
v -0.286964 -4.065765 0.286965
v -0.177645 -3.752443 0.388966
v 0.286965 -4.065765 -0.286965
v 0.263153 -3.837951 -0.388966
v -0.263153 -3.837951 -0.388966
v -0.286964 -4.065765 -0.286965
v 0.166576 -7.895475 0.166576
v -0.166576 -7.895475 0.166576
v 0.166576 -7.895475 -0.166576
v -0.166576 -7.895475 -0.166576
v 0.388966 -2.602577 -0.285573
v -0.388966 -2.616428 -0.271723
v -0.388966 -3.846521 -0.271723
v 0.388966 -3.860371 -0.285573
v 0.263153 -4.037684 -0.724154
v -0.263153 -4.037684 -0.724154
v 0.263153 -4.692227 -1.187359
v -0.263153 -4.692227 -1.187359
v 0.263153 -4.273366 -1.565037
v -0.263153 -4.273366 -1.565037
v 0.263153 -5.885054 -1.565037
v -0.263153 -5.885054 -1.565037
v 0.263153 -3.479275 -1.187359
v -0.263153 -3.479275 -1.187359
v -0.388966 -1.860358 -0.939297
v 0.388966 -1.860358 -0.939297
v -0.388966 -1.860358 -1.932127
v 0.388966 -1.860358 -1.932127
v 0.263153 -2.624998 -0.388966
v -0.263153 -2.624998 -0.388966
v 0.263153 -3.091308 -0.724154
v -0.263153 -3.091308 -0.724154
v 0.388966 -2.499185 -0.388966
v -0.388966 -2.499185 -0.388966
v 0.125921 -2.299893 -0.560651
v -0.125921 -2.299893 -0.560651
v 0.104869 -2.530508 -0.684602
v -0.104869 -2.530508 -0.684602
v 0.045877 -2.733404 -0.738717
v -0.135651 -2.733404 -0.738717
v -0.107167 -2.195433 -1.218670
v 0.107167 -2.195433 -1.218670
v -0.122557 -2.296881 -1.462640
v 0.077671 -2.296881 -1.462640
v 0.263153 -5.818767 -1.249344
v -0.263153 -5.818767 -1.249344
v -0.286964 -7.895475 -0.286965
v -0.286964 -7.895475 0.286965
v 0.286965 -7.895475 0.286965
v 0.286965 -7.895475 -0.286965
v 0.166576 -2.516834 0.166576
v -0.166576 -2.516834 0.166576
v 0.166576 -2.516834 -0.166576
v -0.166576 -2.516834 -0.166576
v -0.388966 -2.616428 0.271723
v 0.388966 -2.602577 0.285573
v 0.388966 -3.860371 0.285573
v -0.388966 -3.846521 0.271723
v 0.086452 -2.801699 0.482045
v -0.086452 -2.801699 0.482045
v 0.086452 -3.661250 0.482045
v -0.086452 -3.661250 0.482045
v -0.177645 -2.710506 0.482045
v 0.177645 -2.710506 0.482045
v 0.177645 -3.752443 0.482045
v -0.177645 -3.752443 0.482045
v -0.086452 -3.661250 0.823975
v 0.086452 -3.661250 0.823975
v -0.086452 -2.801699 0.823975
v 0.086452 -2.801699 0.823975
v 0.388966 -2.499185 0.388966
v 0.388966 -2.499185 -0.388966
v 0.388966 -3.963764 -0.388966
v 0.388966 -3.963764 0.388966
v 0.462860 -2.690086 0.198065
v 0.462860 -2.690086 -0.198065
v 0.462860 -3.772863 -0.198065
v 0.462860 -3.772863 0.198065
v 0.462860 -2.602577 0.285573
v 0.462860 -2.602577 -0.285573
v 0.462860 -3.860371 -0.285573
v 0.462860 -3.860371 0.285573
v 0.462860 -3.231474 0.198065
v 0.462860 -3.231474 -0.198065
v 0.462860 -2.960780 0.198065
v 0.462860 -2.960780 -0.198065
v 0.462860 -3.502169 0.198065
v 0.462860 -3.502169 -0.198065
v 0.462860 -2.690086 0.000000
v 0.462860 -3.772863 0.000000
v 0.462860 -3.231474 0.000000
v 0.462860 -2.960780 0.000000
v 0.462860 -3.502169 0.000000
v 0.506433 -3.772863 -0.198065
v 0.506433 -3.502169 -0.198065
v 0.506433 -3.772863 0.000000
v 0.506433 -3.502169 0.000000
v 0.484566 -3.231474 0.198065
v 0.484566 -3.502169 0.198065
v 0.484566 -3.231474 0.000000
v 0.484566 -3.502169 0.000000
v 0.544345 -3.231474 -0.198065
v 0.544345 -2.960780 -0.198065
v 0.544345 -3.231474 0.000000
v 0.544345 -2.960780 0.000000
v 0.496039 -2.690086 0.198065
v 0.496039 -2.960780 0.198065
v 0.496039 -2.690086 0.000000
v 0.496039 -2.960780 0.000000
v -0.388966 -2.499185 -0.388966
v -0.388966 -2.499185 0.388966
v -0.388966 -3.963764 0.388966
v -0.388966 -3.963764 -0.388966
v -0.643611 -2.616428 0.165915
v -0.537803 -2.616428 0.271723
v -0.537803 -3.846521 0.271723
v -0.643611 -3.846521 0.165915
v -0.435196 -2.616428 -0.271723
v -0.643611 -2.616428 -0.063308
v -0.643611 -3.846521 -0.063308
v -0.435196 -3.846521 -0.271723
vt 0.179368 0.683597
vt 0.267521 0.687916
vt 0.263190 0.776073
vt 0.175037 0.771754
vt 0.666736 0.590862
vt 0.578469 0.590862
vt 0.578469 0.530875
vt 0.666736 0.530875
vt 0.464284 0.128323
vt 0.552436 0.124014
vt 0.556768 0.212162
vt 0.468616 0.216471
vt 0.834567 0.493269
vt 0.852334 0.493269
vt 0.842784 0.505867
vt 0.401740 0.131598
vt 0.463483 0.115968
vt 0.569168 0.211773
vt 0.560143 0.284774
vt 0.471991 0.289083
vt 0.406072 0.219746
vt 0.834567 0.405001
vt 0.842784 0.392403
vt 0.852334 0.405001
vt 0.174249 0.784206
vt 0.112505 0.768569
vt 0.270908 0.615393
vt 0.279933 0.688402
vt 0.116836 0.680411
vt 0.182755 0.611073
vt 0.666736 0.784752
vt 0.755004 0.784752
vt 0.755004 0.830971
vt 0.666736 0.830971
vt 0.551635 0.111659
vt 0.262402 0.788526
vt 0.578469 0.472373
vt 0.666736 0.472373
vt 0.564835 0.123625
vt 0.892988 0.718047
vt 0.864413 0.718047
vt 0.864413 0.688060
vt 0.892988 0.688060
vt 0.275602 0.776560
vt 0.459250 0.029842
vt 0.547402 0.025533
vt 0.755004 0.901524
vt 0.666736 0.901524
vt 0.258170 0.874661
vt 0.170017 0.870342
vt 0.769446 0.892048
vt 0.857714 0.892048
vt 0.857714 0.950659
vt 0.769446 0.950659
vt 0.638186 0.822920
vt 0.638186 0.734652
vt 0.648527 0.734652
vt 0.648527 0.822920
vt 0.386829 0.033382
vt 0.386209 0.020757
vt 0.577848 0.011390
vt 0.578469 0.024014
vt 0.769446 0.973479
vt 0.857714 0.973479
vt 0.857714 0.982070
vt 0.769446 0.982070
vt 0.457268 0.988452
vt 0.457268 0.900184
vt 0.529477 0.900184
vt 0.529477 0.988452
vt 0.922834 0.747883
vt 0.922834 0.659616
vt 0.976031 0.659616
vt 0.976031 0.747883
vt 0.289237 0.876184
vt 0.288617 0.888809
vt 0.096975 0.879419
vt 0.097595 0.866794
vt 0.781669 0.874810
vt 0.845491 0.874810
vt 0.857714 0.892048
vt 0.769446 0.892048
vt 0.397639 0.008174
vt 0.564864 0.000000
vt 0.665556 0.746875
vt 0.665556 0.810696
vt 0.275645 0.900292
vt 0.108418 0.892099
vt 0.781669 0.747883
vt 0.845491 0.747883
vt 0.289237 0.988452
vt 0.289237 0.900184
vt 0.374629 0.900184
vt 0.374629 0.988452
vt 0.000000 0.763057
vt 0.004331 0.674899
vt 0.293569 0.225245
vt 0.289237 0.137097
vt 0.663016 0.590862
vt 0.663016 0.590862
vt 0.663016 0.590862
vt 0.663016 0.590862
vt 0.663016 0.590862
vt 0.663016 0.590862
vt 0.663016 0.590862
vt 0.663016 0.590862
vt 0.892988 0.682080
vt 0.922834 0.652243
vt 0.922834 0.747883
vt 0.864413 0.682080
vt 0.834567 0.747883
vt 0.834567 0.652243
vt 0.047380 0.900293
vt 0.047380 0.960717
vt 0.000000 0.945896
vt 0.000000 0.925299
vt 0.864413 0.659526
vt 0.892988 0.659526
vt 0.659463 0.960532
vt 0.641237 0.929511
vt 0.659463 0.893651
vt 0.649360 0.931852
vt 0.834567 0.652243
vt 0.834567 0.623668
vt 0.862124 0.623668
vt 0.862124 0.652243
vt 0.076274 0.931315
vt 0.094498 0.900293
vt 0.084396 0.928973
vt 0.094498 0.967174
vt 0.971107 0.258292
vt 0.971107 0.140087
vt 0.981667 0.140090
vt 0.981667 0.258295
vt 0.769445 0.266175
vt 0.714617 0.392403
vt 0.700813 0.328730
vt 0.743591 0.230245
vt 0.987437 0.747883
vt 0.987437 0.864634
vt 0.979053 0.864634
vt 0.979053 0.747883
vt 0.202879 0.433992
vt 0.267915 0.437179
vt 0.279062 0.449423
vt 0.190909 0.445104
vt 0.557141 0.463058
vt 0.492106 0.466237
vt 0.480147 0.455036
vt 0.568299 0.450727
vt 0.590042 0.343082
vt 0.655163 0.343082
vt 0.666736 0.359438
vt 0.578469 0.359438
vt 0.850915 0.517441
vt 0.850915 0.582561
vt 0.834567 0.594135
vt 0.834567 0.505867
vt 0.578469 0.897005
vt 0.513433 0.900184
vt 0.857712 0.000005
vt 0.895509 0.000000
vt 0.895509 0.610256
vt 0.857712 0.610261
vt 0.224201 0.000000
vt 0.289237 0.003186
vt 0.834567 0.747883
vt 0.769446 0.747883
vt 0.769446 0.392403
vt 0.834567 0.392403
vt 0.590042 0.047771
vt 0.655163 0.047771
vt 0.783720 0.379350
vt 0.843437 0.379350
vt 0.857712 0.391027
vt 0.769445 0.391027
vt 0.843437 0.266761
vt 0.783720 0.266761
vt 0.769445 0.255083
vt 0.857712 0.255083
vt 0.670146 0.267426
vt 0.724973 0.141198
vt 0.638186 0.846606
vt 0.578469 0.846606
vt 0.578469 0.803306
vt 0.638186 0.803306
vt 0.714618 0.392403
vt 0.769446 0.518614
vt 0.743592 0.554540
vt 0.700814 0.456067
vt 0.670146 0.517362
vt 0.724974 0.643573
vt 0.739589 0.784753
vt 0.666736 0.617052
vt 0.578469 0.714278
vt 0.638186 0.714278
vt 0.843437 0.149600
vt 0.783720 0.149600
vt 0.783720 0.000000
vt 0.843437 0.000000
vt 0.843437 0.247954
vt 0.783720 0.247954
vt 0.666736 0.167722
vt 0.739588 0.000000
vt 0.769445 0.021163
vt 0.843437 0.314193
vt 0.783720 0.314193
vt 0.397894 0.931898
vt 0.397894 0.956738
vt 0.374629 0.988452
vt 0.374629 0.900184
vt 0.434003 0.931898
vt 0.457268 0.900184
vt 0.434003 0.956738
vt 0.457268 0.988452
vt 0.848488 0.742118
vt 0.908912 0.742118
vt 0.890599 0.723811
vt 0.866802 0.723811
vt 0.920248 0.913146
vt 0.896507 0.914790
vt 0.901640 0.892016
vt 0.922188 0.890594
vt 0.985428 0.499255
vt 0.989749 0.517088
vt 0.961684 0.519349
vt 0.939316 0.511280
vt 0.922188 0.941164
vt 0.898447 0.942808
vt 0.979053 0.883730
vt 0.974862 0.901504
vt 0.928417 0.889498
vt 0.950991 0.881469
vt 0.665556 0.822920
vt 0.665296 0.893651
vt 0.641498 0.893651
vt 0.641237 0.822920
vt 0.958488 0.590811
vt 0.989749 0.612450
vt 0.961753 0.652931
vt 0.933306 0.607017
vt 0.663016 0.682745
vt 0.663016 0.733931
vt 0.638186 0.734652
vt 0.640307 0.683404
vt 0.922511 0.793779
vt 0.951059 0.747883
vt 0.979053 0.788364
vt 0.947795 0.810005
vt 0.661834 0.590862
vt 0.641246 0.591460
vt 0.423721 0.932158
vt 0.423721 0.956477
vt 0.578469 0.622251
vt 0.638186 0.622251
vt 0.578469 0.590862
vt 0.638186 0.590862
vt 0.769446 0.763593
vt 0.603702 0.010020
vt 0.603702 0.037750
vt 0.590042 0.000000
vt 0.641503 0.037750
vt 0.641503 0.010020
vt 0.655163 0.000000
vt 0.641503 0.424771
vt 0.641503 0.452501
vt 0.603702 0.452501
vt 0.603702 0.424771
vt 0.933306 0.000000
vt 0.971107 0.000000
vt 0.971107 0.499255
vt 0.933306 0.499255
vt 0.933306 0.610203
vt 0.895510 0.610193
vt 0.895510 0.000000
vt 0.933306 0.000010
vt 0.602446 0.456078
vt 0.642759 0.456078
vt 0.642759 0.375733
vt 0.602446 0.375733
vt 0.153838 0.900293
vt 0.153838 0.940605
vt 0.145833 0.940605
vt 0.145833 0.900293
vt 0.755004 0.902971
vt 0.755004 0.784754
vt 0.765564 0.784752
vt 0.765564 0.902969
vt 0.642759 0.383481
vt 0.602446 0.383481
vt 0.612793 0.456794
vt 0.632412 0.456794
vt 0.642759 0.463825
vt 0.602446 0.463825
vt 0.632412 0.390512
vt 0.612793 0.390512
vt 0.116968 0.900293
vt 0.136587 0.900293
vt 0.136587 0.929702
vt 0.116968 0.929702
vt 0.529477 0.997698
vt 0.529477 0.900184
vt 0.568269 0.900194
vt 0.568269 0.997708
vt 0.632412 0.418974
vt 0.612793 0.418974
vt 0.612793 0.485254
vt 0.632412 0.485254
vt 0.857714 0.988123
vt 0.857714 0.890599
vt 0.896507 0.890594
vt 0.896507 0.988118
vt 0.549003 0.297062
vt 0.484283 0.300226
vt 0.491288 0.442748
vt 0.556007 0.439584
vt 0.971107 0.305835
vt 0.971107 0.258295
vt 0.979491 0.258295
vt 0.979491 0.305835
vt 0.971107 0.402824
vt 0.979491 0.402824
vt 0.576653 0.900184
vt 0.576653 0.949308
vt 0.568269 0.949308
vt 0.568269 0.900184
vt 0.912583 0.757825
vt 0.890112 0.757819
vt 0.867642 0.757813
vt 0.857714 0.747883
vt 0.922511 0.747900
vt 0.867642 0.880652
vt 0.890112 0.880658
vt 0.912583 0.880664
vt 0.922511 0.890594
vt 0.857714 0.890577
vt 0.912583 0.849954
vt 0.912583 0.819244
vt 0.912583 0.788535
vt 0.867642 0.788523
vt 0.867642 0.819232
vt 0.867642 0.849942
vt 0.890112 0.849948
vt 0.890112 0.788529
vt 0.890112 0.819238
vt 0.163084 0.900293
vt 0.163084 0.917328
vt 0.153838 0.917328
vt 0.153838 0.900293
vt 0.765564 0.822112
vt 0.765564 0.801238
vt 0.769329 0.801238
vt 0.769329 0.822112
vt 0.852334 0.429762
vt 0.852334 0.408889
vt 0.857278 0.408889
vt 0.857278 0.429762
vt 0.663016 0.607348
vt 0.663016 0.590862
vt 0.665479 0.590862
vt 0.665479 0.607348
vt 0.094498 0.900293
vt 0.116968 0.900298
vt 0.116968 0.931008
vt 0.094498 0.931002
vt 0.852334 0.392403
vt 0.857278 0.392403
vt 0.848756 0.594135
vt 0.848756 0.619261
vt 0.843812 0.619261
vt 0.843812 0.594135
vt 0.857278 0.429762
vt 0.857278 0.446798
vt 0.852334 0.446798
vt 0.852334 0.429762
vt 0.884595 0.621528
vt 0.907065 0.621534
vt 0.907065 0.652243
vt 0.884595 0.652237
vt 0.665479 0.628222
vt 0.665479 0.653348
vt 0.663016 0.653348
vt 0.663016 0.628222
vt 0.663016 0.628222
vt 0.665479 0.628222
vt 0.665479 0.670383
vt 0.663016 0.670383
vt 0.884595 0.652243
vt 0.862124 0.652237
vt 0.862124 0.621528
vt 0.884595 0.621534
vt 0.136587 0.937652
vt 0.136587 0.916779
vt 0.145832 0.916779
vt 0.145832 0.937652
vt 0.843812 0.594135
vt 0.843812 0.619261
vt 0.834567 0.619261
vt 0.834567 0.594135
vt 0.136587 0.900293
vt 0.145832 0.900293
vt 0.907065 0.621528
vt 0.929536 0.621534
vt 0.929536 0.652243
vt 0.907065 0.652237
vt 0.765564 0.784752
vt 0.769329 0.784752
vt 0.769329 0.822112
vt 0.769329 0.847238
vt 0.765564 0.847238
vt 0.765564 0.822112
vt 0.856098 0.446798
vt 0.856098 0.463833
vt 0.852334 0.463833
vt 0.852334 0.446798
vt 0.196693 0.598438
vt 0.258275 0.601456
vt 0.265124 0.462058
vt 0.203542 0.459042
vt 0.971107 0.094853
vt 0.971107 0.000000
vt 0.987994 0.000000
vt 0.987994 0.094853
vt 0.971107 0.140087
vt 1.000000 0.103660
vt 1.000000 0.122740
vt 0.976352 0.140087
vt 0.076274 0.900293
vt 0.076274 0.947034
vt 0.071028 0.947034
vt 0.047381 0.929108
vt 0.047381 0.909393
vt 0.059386 0.900293
vt 0.628451 0.986392
vt 0.628451 0.846828
vt 0.640287 0.846710
vt 0.640287 0.986275
vt 0.602445 0.986396
vt 0.602445 0.846831
vt 0.578469 0.986172
vt 0.578469 0.846606
vt 0.850915 0.620047
vt 0.850915 0.505867
vt 0.856160 0.505867
vt 0.856160 0.620047
vn -1.0000 -0.0000 0.0000
vn 0.0000 0.0000 1.0000
vn 1.0000 0.0000 0.0000
vn 0.5774 0.5774 0.5773
vn 0.7000 0.7000 -0.1412
vn 0.7018 -0.1220 0.7018
vn 0.9663 -0.1680 -0.1950
vn -0.5774 0.5774 0.5773
vn -0.7000 0.7000 -0.1412
vn -0.7018 -0.1220 0.7018
vn -0.9663 -0.1680 -0.1950
vn -0.9802 -0.0000 -0.1978
vn 0.0000 0.9802 -0.1978
vn 0.7071 0.7071 0.0000
vn -0.9852 -0.1712 0.0000
vn 0.9852 -0.1712 0.0000
vn -0.7071 0.7071 0.0000
vn 0.0000 -0.1712 0.9852
vn 0.7071 0.0000 0.7071
vn 0.0000 -0.7856 -0.6187
vn -0.7071 -0.0000 0.7071
vn 0.0000 0.7071 0.7071
vn 0.9802 0.0000 -0.1978
vn -0.0000 0.0000 -1.0000
vn 0.0000 -1.0000 0.0000
vn -0.0000 0.7071 -0.7071
vn -0.0000 1.0000 0.0000
vn -0.0000 -0.6527 -0.7576
vn 0.0000 -0.7576 0.6527
vn 0.0000 -0.9976 -0.0698
vn 0.0000 0.9900 -0.1413
vn -0.7071 -0.7071 0.0000
vn 0.7071 -0.7071 0.0000
vn 0.0000 -0.7071 0.7071
vn 0.0000 -0.7071 -0.7071
vn 0.0000 -0.8590 0.5119
vn 0.0000 -0.5777 0.8163
vn 0.0000 0.4295 -0.9031
vn 0.0000 0.7666 -0.6421
vn 0.0000 0.5837 -0.8120
vn 0.0000 0.2577 -0.9662
vn -0.7508 0.3561 -0.5564
vn 0.0000 0.6331 -0.7741
vn 0.8183 0.1712 -0.5487
vn 0.0000 0.8471 0.5315
vn -0.9996 0.0189 0.0199
vn 0.0000 -0.3991 -0.9169
vn 0.9980 -0.0528 -0.0355
vn 0.9767 -0.1936 -0.0923
vn 0.0000 -0.8564 -0.5164
vn -0.9937 0.0994 0.0524
vn 0.0000 0.0004 1.0000
vn 0.0000 -0.0549 0.9985
vn 0.0000 -0.9787 0.2055
vn -0.7071 -0.0000 -0.7071
usemtl Material
s off
f 24/1/1 19/2/1 14/3/1 16/4/1
f 2/5/2 15/6/2 21/7/2 8/8/2
f 6/9/3 3/10/3 7/11/3 10/12/3
f 1/13/4 2/14/4 3/15/4
f 4/16/5 5/17/5 6/9/5
f 7/11/6 8/18/6 127/19/6
f 10/12/7 128/20/7 82/21/7
f 13/22/8 14/23/8 15/24/8
f 16/4/9 17/25/9 18/26/9
f 19/2/10 167/27/10 21/28/10
f 81/29/11 166/30/11 24/1/11
f 18/26/12 81/29/12 24/1/12 16/4/12
f 4/31/13 18/32/13 17/33/13 5/34/13
f 3/10/14 6/9/14 5/17/14 1/35/14
f 166/30/15 167/27/15 19/2/15 24/1/15
f 127/19/16 128/20/16 10/12/16 7/11/16
f 13/36/17 17/25/17 16/4/17 14/3/17
f 8/8/18 21/7/18 167/37/18 127/38/18
f 2/39/19 8/18/19 7/11/19 3/10/19
f 91/40/20 92/41/20 54/42/20 51/43/20
f 21/28/21 15/44/21 14/3/21 19/2/21
f 15/24/22 2/14/22 1/13/22 13/22/22
f 82/21/23 4/16/23 6/9/23 10/12/23
f 1/35/3 5/17/3 25/45/3 26/46/3
f 5/34/24 17/33/24 27/47/24 25/48/24
f 17/25/1 13/36/1 28/49/1 27/50/1
f 13/51/2 1/52/2 26/53/2 28/54/2
f 33/55/24 35/56/24 44/57/24 41/58/24
f 26/46/3 25/45/3 33/59/3 41/60/3 38/61/3 29/62/3
f 31/63/2 29/64/2 38/65/2 40/66/2
f 28/54/25 26/53/25 29/64/25 31/63/25
f 32/67/24 36/68/24 84/69/24 83/70/24
f 25/71/25 27/72/25 35/73/25 33/74/25
f 28/49/1 31/75/1 40/76/1 44/77/1 35/78/1 27/50/1
f 37/79/22 39/80/22 40/81/22 38/82/22
f 42/83/14 37/84/14 38/61/14 41/60/14
f 43/85/26 42/86/26 41/58/26 44/57/26
f 44/77/17 40/76/17 39/87/17 43/88/17
f 39/80/27 37/79/27 42/89/27 43/90/27
f 18/91/27 4/92/27 36/93/27 32/94/27
f 81/29/1 18/26/1 32/95/1 83/96/1
f 4/16/3 82/21/3 84/97/3 36/98/3
f 89/99/2 48/100/2 82/101/2 128/102/2
f 49/103/2 90/104/2 166/105/2 81/106/2
f 48/100/2 49/103/2 81/106/2 82/101/2
f 90/104/2 89/99/2 128/102/2 166/105/2
f 91/40/28 12/107/28 48/108/28 89/109/28
f 22/110/28 92/41/28 90/111/28 49/112/28
f 12/107/28 22/110/28 49/112/28 48/108/28
f 47/113/29 50/114/29 96/115/29 95/116/29
f 53/117/30 52/118/30 51/43/30 54/42/30
f 92/119/1 22/120/1 53/121/1 54/122/1
f 22/123/31 12/124/31 52/125/31 53/126/31
f 12/127/3 91/128/3 51/129/3 52/130/3
f 55/131/3 9/132/3 120/133/3 121/134/3
f 61/135/1 86/136/1 88/137/1 72/138/1
f 70/139/24 67/140/24 136/141/24 137/142/24
f 62/143/32 57/144/32 168/145/32 169/146/32
f 56/147/33 59/148/33 129/149/33 130/150/33
f 57/151/34 56/152/34 130/153/34 168/154/34
f 59/155/35 62/156/35 169/157/35 129/158/35
f 59/148/3 56/147/3 105/159/3 106/160/3
f 65/161/1 63/162/1 107/163/1 109/164/1
f 57/144/1 62/143/1 103/165/1 104/166/1
f 62/167/24 59/168/24 106/169/24 103/170/24
f 56/152/2 57/151/2 104/171/2 105/172/2
f 85/173/24 86/174/24 166/175/24 128/176/24
f 61/177/24 60/178/24 129/179/24 169/180/24
f 60/178/24 85/173/24 128/176/24 129/179/24
f 86/174/24 61/177/24 169/180/24 166/175/24
f 72/138/1 88/137/1 80/181/1 74/182/1
f 60/183/36 61/184/36 72/185/36 71/186/36
f 85/187/3 60/188/3 71/189/3 87/190/3
f 79/191/3 73/192/3 77/193/3 75/194/3
f 71/186/37 72/185/37 74/195/37 73/196/37
f 87/190/3 71/189/3 73/192/3 79/191/3
f 76/197/24 75/198/24 77/199/24 78/200/24
f 80/201/38 79/202/38 75/198/38 76/197/38
f 74/182/1 80/181/1 76/203/1 78/204/1
f 74/182/1 78/204/1 102/205/1
f 88/206/39 87/207/39 79/202/39 80/201/39
f 46/208/25 45/209/25 82/210/25 81/211/25
f 30/212/25 46/208/25 81/211/25 83/213/25
f 45/209/25 34/214/25 84/215/25 82/210/25
f 34/214/25 30/212/25 83/213/25 84/215/25
f 86/174/40 85/173/40 87/207/40 88/206/40
f 50/216/28 47/217/28 89/109/28 90/111/28
f 11/218/28 23/219/28 92/41/28 91/40/28
f 47/217/28 11/218/28 91/40/28 89/109/28
f 23/219/28 50/216/28 90/111/28 92/41/28
f 94/220/41 93/221/41 95/222/41 96/223/41
f 50/224/42 23/225/42 94/226/42 96/227/42
f 23/228/43 11/229/43 93/221/43 94/220/43
f 11/230/44 47/231/44 95/232/44 93/233/44
f 97/234/45 94/235/45 93/236/45 98/237/45
f 97/238/46 46/239/46 30/240/46 99/241/46
f 99/242/47 30/243/47 34/244/47 100/245/47
f 100/246/48 34/247/48 45/248/48 98/249/48
f 95/232/49 100/246/49 98/249/49 93/233/49
f 96/250/50 99/242/50 100/245/50 95/251/50
f 94/226/51 97/238/51 99/241/51 96/227/51
f 46/208/52 97/252/52 98/253/52 45/209/52
f 73/196/53 74/195/53 102/254/53 101/255/53
f 78/256/54 77/257/54 101/255/54 102/254/54
f 77/193/3 73/192/3 101/258/3
f 66/259/25 64/260/25 104/171/25 103/261/25
f 63/262/25 65/263/25 106/264/25 105/172/25
f 64/260/25 63/262/25 105/172/25 104/171/25
f 65/263/25 66/259/25 103/261/25 106/264/25
f 109/265/25 107/266/25 108/267/25 110/268/25
f 63/269/24 64/270/24 108/271/24 107/272/24
f 64/273/3 66/274/3 110/275/3 108/276/3
f 66/259/2 65/263/2 109/265/2 110/268/2
f 20/277/2 9/278/2 127/38/2 167/37/2
f 55/279/2 58/280/2 168/154/2 130/153/2
f 9/278/2 55/279/2 130/153/2 127/38/2
f 58/280/2 20/277/2 167/37/2 168/154/2
f 9/281/27 20/282/27 119/283/27 120/284/27
f 20/285/1 58/286/1 122/287/1 119/288/1
f 58/280/25 55/279/25 121/289/25 122/290/25
f 116/291/2 115/292/2 120/293/2 119/294/2
f 117/295/2 118/296/2 122/290/2 121/289/2
f 115/292/2 117/295/2 121/289/2 120/293/2
f 118/296/2 116/291/2 119/294/2 122/290/2
f 115/297/27 116/298/27 125/299/27 126/300/27
f 117/301/3 115/302/3 126/303/3 124/304/3
f 118/296/25 117/295/25 124/305/25 123/306/25
f 125/307/2 123/306/2 124/305/2 126/308/2
f 116/309/1 118/310/1 123/311/1 125/312/1
f 112/313/3 67/314/3 128/20/3 127/19/3
f 70/315/3 113/316/3 130/150/3 129/149/3
f 113/316/3 112/313/3 127/19/3 130/150/3
f 67/314/3 70/315/3 129/149/3 128/20/3
f 113/317/25 70/318/25 137/319/25 138/320/25
f 112/321/2 113/317/2 138/320/2 135/322/2
f 67/323/27 112/324/27 135/325/27 136/326/27
f 131/327/3 145/328/3 132/329/3 136/330/3 135/331/3
f 133/332/3 146/333/3 134/334/3 138/335/3 137/336/3
f 134/334/3 143/337/3 139/338/3 141/339/3 131/327/3 135/331/3 138/335/3
f 132/329/3 142/340/3 140/341/3 144/342/3 133/332/3 137/336/3 136/330/3
f 149/343/3 143/337/3 134/334/3 146/333/3
f 148/344/3 141/339/3 139/338/3 147/345/3
f 142/346/27 148/347/27 161/348/27 159/349/27
f 132/329/3 145/328/3 148/344/3 142/340/3
f 131/350/2 141/351/2 163/352/2 162/353/2
f 149/354/2 146/355/2 152/356/2 153/357/2
f 140/341/3 147/345/3 149/343/3 144/342/3
f 143/358/25 149/359/25 157/360/25 155/361/25
f 151/362/3 153/363/3 152/364/3 150/365/3
f 146/355/25 133/366/25 150/367/25 152/356/25
f 133/368/24 144/369/24 151/370/24 150/371/24
f 144/372/27 149/373/27 153/374/27 151/375/27
f 156/376/3 154/377/3 155/378/3 157/379/3
f 149/380/24 147/381/24 156/382/24 157/383/24
f 139/384/2 143/358/2 155/361/2 154/385/2
f 147/381/27 139/386/27 154/387/27 156/382/27
f 159/388/3 161/389/3 160/390/3 158/391/3
f 148/392/2 147/393/2 160/394/2 161/395/2
f 140/396/24 142/397/24 159/398/24 158/399/24
f 147/393/25 140/400/25 158/401/25 160/394/25
f 164/402/3 162/403/3 163/404/3 165/405/3
f 141/351/25 148/406/25 165/407/25 163/352/25
f 148/408/24 145/409/24 164/410/24 165/411/24
f 145/412/27 131/413/27 162/414/27 164/415/27
f 68/416/1 111/417/1 167/27/1 166/30/1
f 114/418/1 69/419/1 169/146/1 168/145/1
f 111/417/1 114/418/1 168/145/1 167/27/1
f 69/419/1 68/416/1 166/30/1 169/146/1
f 114/420/2 111/421/2 171/422/2 172/423/2
f 69/424/25 114/420/25 172/423/25 173/425/25 176/426/25 177/427/25
f 111/428/27 68/429/27 174/430/27 175/431/27 170/432/27 171/433/27
f 170/434/21 173/435/21 172/436/21 171/437/21
f 170/434/1 175/438/1 176/439/1 173/435/1
f 174/440/55 177/441/55 176/439/55 175/438/55
f 68/442/24 69/443/24 177/444/24 174/445/24
